<svg width="300" height="64" viewBox="0 -8 32 48" fill="none" xmlns="http://www.w3.org/2000/svg">
<path fill-rule="evenodd" clip-rule="evenodd" d="M10.4355 6.56999L15.993 26.9103C16.3672 28.2768 17.7761 29.0818 19.1411 28.7088C20.506 28.3337 21.3091 26.922 20.936 25.5555L15.3775 5.21411C15.0033 3.84752 13.5944 3.04257 12.2294 3.41664C10.8655 3.79071 10.0613 5.20232 10.4355 6.56999Z" fill="#F96216"/>
<path fill-rule="evenodd" clip-rule="evenodd" d="M20.7301 6.4928L6.81239 22.2263C5.87417 23.2874 5.97175 24.9102 7.03112 25.8502C8.0905 26.7902 9.70959 26.6916 10.6478 25.6305L24.5655 9.89696C25.5037 8.83584 25.4062 7.21415 24.3468 6.27414C23.2874 5.33414 21.6694 5.43168 20.7301 6.4928Z" fill="#B200F8"/>
<path fill-rule="evenodd" clip-rule="evenodd" d="M4.95942 15.2123L24.8077 21.7848C26.1512 22.2307 27.5998 21.4997 28.0448 20.1545C28.4898 18.8083 27.7596 17.357 26.4172 16.9133L6.56778 10.3375C5.22426 9.89381 3.77566 10.6227 3.33175 11.9689C2.88677 13.3151 3.61589 14.7664 4.95942 15.2123Z" fill="#00B4F2"/>
</svg>
